<?xml version="1.0"?>
<svg xmlns:rdf="http://www.w3.org/1999/02/22-rdf-syntax-ns#" xmlns="http://www.w3.org/2000/svg" xmlns:cc="http://creativecommons.org/ns#" xmlns:xlink="http://www.w3.org/1999/xlink" xmlns:dc="http://purl.org/dc/elements/1.1/" xmlns:svg="http://www.w3.org/2000/svg" id="svg1" viewBox="0 0 41.161 47.605" version="1.0">
  <g id="g869" stroke="#000" transform="translate(-80.598 -338.39)" fill-rule="evenodd">
    <path id="path861" stroke-width=".45574" d="m94.574 338.62c-8.785 0.21-15.515 6.36-13.334 15.79 0.002 0.01 0.013 0.02 0.016 0.03 0.256 3.25 2.96 5.81 6.276 5.81 3.485 0 6.309-2.82 6.309-6.3 0-3.08-2.191-5.64-5.098-6.2-1.158-0.41-2.896-1.34-2.82-2.84 0.036-0.74 0.903-2.09 2.294-2.77 1.691-0.79 3.434-1.22 5.194-0.86 2.667 0.49 9.489 5.39 10.019 13.88 0.31 6.44-3.31 15.15-6.849 19.27-5.698 6.51-14.851 10.55-13.955 11.27 0.803 0.72 11.61-4.22 17.237-10.42 6.867-7.44 10.267-13.64 9.937-21.17-0.19-7.54-6.03-15.7-15.226-15.49z"/>
    <path id="path1877" stroke-linejoin="round" d="m116.86 36.473a9.7721 9.1613 0 1 1 -19.546 0 9.7721 9.1613 0 1 1 19.546 0z" transform="matrix(.50978 0 0 .50978 61.959 329.32)" stroke-linecap="round" stroke-width=".894"/>
    <path id="path2766" stroke-linejoin="round" d="m116.86 36.473a9.7721 9.1613 0 1 1 -19.546 0 9.7721 9.1613 0 1 1 19.546 0z" transform="matrix(.50978 0 0 .50978 61.959 342.37)" stroke-linecap="round" stroke-width=".894"/>
  </g>
  <metadata>
    <rdf:RDF>
      <cc:Work>
        <dc:format>image/svg+xml</dc:format>
        <dc:type rdf:resource="http://purl.org/dc/dcmitype/StillImage"/>
        <cc:license rdf:resource="http://creativecommons.org/licenses/publicdomain/"/>
        <dc:publisher>
          <cc:Agent rdf:about="http://openclipart.org/">
            <dc:title>Openclipart</dc:title>
          </cc:Agent>
        </dc:publisher>
        <dc:title>Bass clef</dc:title>
        <dc:date>2006-12-03T13:00:29</dc:date>
        <dc:description>Simple hollow bass clef</dc:description>
        <dc:source>http://openclipart.org/detail/12475/bass-clef-by-rickvanderzwet-12475</dc:source>
        <dc:creator>
          <cc:Agent>
            <dc:title>rickvanderzwet</dc:title>
          </cc:Agent>
        </dc:creator>
        <dc:subject>
          <rdf:Bag>
            <rdf:li>bass</rdf:li>
            <rdf:li>clef</rdf:li>
            <rdf:li>clip art</rdf:li>
            <rdf:li>clipart</rdf:li>
            <rdf:li>image</rdf:li>
            <rdf:li>line art</rdf:li>
            <rdf:li>media</rdf:li>
            <rdf:li>music</rdf:li>
            <rdf:li>png</rdf:li>
            <rdf:li>public domain</rdf:li>
            <rdf:li>sign</rdf:li>
            <rdf:li>svg</rdf:li>
          </rdf:Bag>
        </dc:subject>
      </cc:Work>
      <cc:License rdf:about="http://creativecommons.org/licenses/publicdomain/">
        <cc:permits rdf:resource="http://creativecommons.org/ns#Reproduction"/>
        <cc:permits rdf:resource="http://creativecommons.org/ns#Distribution"/>
        <cc:permits rdf:resource="http://creativecommons.org/ns#DerivativeWorks"/>
      </cc:License>
    </rdf:RDF>
  </metadata>
</svg>
