<svg id="Layer_1" data-name="Layer 1" xmlns="http://www.w3.org/2000/svg" viewBox="0 0 43.52 122.88"><defs><style>.cls-1{fill-rule:evenodd;}</style></defs><title>treble-clef</title><path class="cls-1" d="M11.35,45.61q3.72-4.22,7.69-8a45.71,45.71,0,0,1-2.19-12c-.23-7.24.88-14.93,5-21C23,2.79,25-.25,27.17,0,29,.24,30,2.83,30.72,4.32c4.92,10,5.93,20.54.25,31.93a46,46,0,0,1-7.84,10.8l2.38,12.12a8.74,8.74,0,0,1,.87-.14,14.2,14.2,0,0,1,8.56,1.41c5.6,3,9.08,10.57,8.52,16.83-.5,5.5-3,9.3-7.15,12.63a23.92,23.92,0,0,1-4.24,2.78l2.87,14.62a28.07,28.07,0,0,1,.12,3.74c-.35,7.71-6.35,12.16-13.78,11.82-5.72-.36-11.67-4.9-11.7-10.64-.06-11.13,15-10.6,13.9-.42-.32,3-2.51,5.65-7.21,5.82,3.79,6.28,15.51,1.79,16.31-6.44a17.52,17.52,0,0,0-.69-6.24L29.72,93.65a17.7,17.7,0,0,1-3.07.67A23.71,23.71,0,0,1,8.5,88.66a26,26,0,0,1-8-24.34C2,56.69,6.39,51.26,11.35,45.61Zm9.81-9.53C19.09,28.55,19.4,19,24.73,12.76S35.94,15,28.18,27.42a48.8,48.8,0,0,1-7,8.66Zm0,13c-.67.67-1.36,1.34-2.06,2-4,3.85-8,7.52-11,13a20.65,20.65,0,0,0-1.5,17.23c2.4,7.49,14,12.21,22.65,9.94L24.72,67.63a9.82,9.82,0,0,0-7.09,8,8.7,8.7,0,0,0,3.08,7.81,16.74,16.74,0,0,0,1.81,1.36c1.24.82.63,1.41-.53,1.06-3.87-1.3-6.19-3.44-7.43-6.17-3.67-8.08.83-17.08,8.66-19.92L21.16,49.07ZM31.63,90.43,27.09,67.24a9,9,0,0,1,4.53,1,12,12,0,0,1,6.62,8.23c1.2,5.57-1.7,11.72-6.49,13.94l-.12.05Z"/></svg>